<?xml version="1.0" encoding="utf-8"?>
<!-- Generator: Adobe Illustrator 15.0.0, SVG Export Plug-In  -->
<!DOCTYPE svg PUBLIC "-//W3C//DTD SVG 1.1//EN" "http://www.w3.org/Graphics/SVG/1.1/DTD/svg11.dtd" [
	<!ENTITY ns_flows "http://ns.adobe.com/Flows/1.0/">
]>
<svg version="1.1"
	 xmlns="http://www.w3.org/2000/svg" xmlns:xlink="http://www.w3.org/1999/xlink" xmlns:a="http://ns.adobe.com/AdobeSVGViewerExtensions/3.0/"
	 x="0px" y="0px" width="550px" height="330px" viewBox="23.931 20.901 550 330"
	 overflow="visible" enable-background="new 23.931 20.901 550 330" xml:space="preserve">
<style type="text/css">
<![CDATA[
]]>
</style>
<defs>
</defs>
<rect fill="#151434" width="601.471" height="370.481"/>
<path fill="#6A658C" d="M157.607,164.962c-0.726,0-1.36-0.276-1.886-0.822c-1.506-1.562-1.705-5.034-1.721-6.477
	c-2.178,0.456-9.867,1.902-19.848,1.902c-25.868,0-69.851-9.712-73.779-74.763c-1.515-25.07,2.98-31.255,3.174-31.506l0.38-0.498
	l0.401,0.481c0.139,0.167,14.434,16.791,64.305,29.942c27.083,7.142,37.824,22.06,42.067,33.317
	c5.697,15.119,2.464,30.667-2.95,38.716C163.357,161.788,160.039,164.962,157.607,164.962z M155.028,156.402l-0.023,0.658
	c-0.048,1.312,0.117,5.018,1.438,6.387c0.334,0.348,0.716,0.516,1.165,0.516c1.405,0,4.163-1.607,9.313-9.265
	c5.276-7.843,8.416-23.018,2.844-37.804c-4.158-11.038-14.715-25.67-41.386-32.704C83.085,72.246,66.892,57.374,64.038,54.437
	c-0.98,1.936-3.916,9.611-2.666,30.306c3.879,64.233,47.265,73.823,72.781,73.823c11.664,0,20.152-1.991,20.236-2.012
	L155.028,156.402z"/>
<path fill="#6A658C" d="M213.672,131.972c0.233,9.275-2.29,17.582-5.751,22.726c-5.15,7.657-7.908,9.265-9.313,9.265
	c-0.449,0-0.831-0.168-1.165-0.516c-1.32-1.369-1.485-5.075-1.438-6.387l0.023-0.658l-0.639,0.152
	c-0.084,0.021-8.572,2.012-20.236,2.012c-25.517,0-68.902-9.59-72.781-73.823c-1.25-20.695,1.686-28.371,2.666-30.306
	c2.854,2.938,19.047,17.81,64.341,29.754c19.88,5.243,30.804,14.708,36.802,23.758c0.295-0.162,0.601-0.304,0.909-0.443
	c-6.093-9.254-17.205-18.942-37.456-24.282c-49.871-13.151-64.166-29.776-64.305-29.942l-0.401-0.481l-0.38,0.498
	c-0.193,0.251-4.688,6.436-3.174,31.506c3.929,65.051,47.911,74.763,73.779,74.763c9.98,0,17.67-1.446,19.848-1.902
	c0.016,1.442,0.215,4.914,1.721,6.477c0.525,0.546,1.16,0.822,1.886,0.822c2.432,0,5.75-3.175,10.144-9.706
	c3.57-5.308,6.172-13.881,5.911-23.436C214.335,131.88,214.007,131.937,213.672,131.972z"/>
<path fill="#FAC899" d="M126.557,135.041h-12.119l-3.66-9.898H91.938l-3.66,9.898H76.159l19.979-49.498h10.439L126.557,135.041z
	 M101.418,100.842h-0.12l-5.52,14.399h11.159L101.418,100.842z"/>
<path fill="#FAC899" d="M138.499,118.902c0,6.06,1.619,8.399,6.059,8.399c4.44,0,6.061-2.34,6.061-8.399v-14.64h10.619v17.22
	c0,10.319-5.16,14.459-16.68,14.459s-16.679-4.14-16.679-14.459v-17.22h10.62V118.902z"/>
<path fill="#80C3B4" d="M167.838,104.262h10.62v4.44h0.119c0,0,3.36-5.34,9.42-5.34c3.96,0,6.72,1.92,6.72,1.92l-4.439,9
	c0,0-1.979-1.68-5.521-1.68c-5.52,0-6.299,5.46-6.299,6.239v16.199h-10.62V104.262z"/>
<path fill="#80C3B4" d="M206.177,121.122c0,4.739,3.96,6.36,6.66,6.36c3.42,0,4.92-0.66,7.499-3.42l7.68,3.84
	c-3.479,5.819-9.119,8.039-15.959,8.039c-9.3,0-16.919-7.32-16.919-16.26c0-8.999,7.619-16.319,16.919-16.319
	c9.359,0,16.499,5.52,16.499,16.319c0,0.42,0,1.08-0.06,1.44H206.177z M218.177,115.242c-0.48-3.24-2.7-4.979-5.82-4.979
	c-3.66,0-5.699,2.16-5.88,4.979H218.177z"/>
<path fill="#44AE9A" d="M243.557,118.902c0,6.06,1.62,8.399,6.06,8.399s6.061-2.34,6.061-8.399v-14.64h10.619v17.22
	c0,10.319-5.16,14.459-16.68,14.459s-16.679-4.14-16.679-14.459v-17.22h10.619V118.902z"/>
<path fill="#44AE9A" d="M272.896,104.262h10.621v3.24h0.119c2.4-2.4,5.459-4.14,8.82-4.14c4.08,0,8.578,1.5,10.738,5.64
	c3.24-3.9,6.84-5.64,10.201-5.64c5.639,0,11.998,2.82,11.998,11.399v20.279h-10.619v-17.398c0-3.061-1.619-5.76-5.4-5.76
	c-3.359,0-4.799,2.459-4.92,4.799v18.359h-10.619v-17.398c0-3.061-1.619-5.76-5.398-5.76c-3.541,0-4.92,2.7-4.92,5.161v17.998
	h-10.621V104.262z"/>
<rect x="23.931" y="182.901" fill="none" width="557" height="80.946"/>
<text transform="matrix(1 0 0 1 71.584 207.3804)" fill="#F5F4F9" font-family="'Fanwood'" font-size="36">More space, more time, more you.</text>
<rect x="73.471" y="223.428" fill="none" width="458.661" height="144.139"/>
<text transform="matrix(1 0 0 1 73.4707 239.8276)" fill="#90C3B4" font-family="'Junction-Light'" font-size="20">Aureum makes it as easy to give as it is to get.</text>
<text transform="matrix(1 0 0 1 70.4707 308.4077)" fill="#F5F4F9" font-family="'LeagueSpartan-Bold'" font-size="48">aureum.io</text>
<text transform="matrix(1 0 0 1 349.8037 300.5601)" fill="#6A658C" font-family="'Fanwood-Italic'" font-size="18">more info + NYC-only beta</text>
</svg>
