<?xml version="1.0" encoding="utf-8"?>
<!-- Generator: Adobe Illustrator 15.0.0, SVG Export Plug-In  -->
<!DOCTYPE svg PUBLIC "-//W3C//DTD SVG 1.1//EN" "http://www.w3.org/Graphics/SVG/1.1/DTD/svg11.dtd" [
	<!ENTITY ns_flows "http://ns.adobe.com/Flows/1.0/">
]>
<svg version="1.1"
	 xmlns="http://www.w3.org/2000/svg" xmlns:xlink="http://www.w3.org/1999/xlink" xmlns:a="http://ns.adobe.com/AdobeSVGViewerExtensions/3.0/"
	 x="0px" y="0px" width="550px" height="330px" viewBox="-1.5 11 550 330"
	 overflow="visible" enable-background="new -1.5 11 550 330" xml:space="preserve">
<style type="text/css">
<![CDATA[
]]>
</style>
<defs>
</defs>
<polygon fill="none" stroke="#000000" stroke-width="8" stroke-miterlimit="10" points="62.521,247.925 21.422,176.736 
	62.521,105.549 144.723,105.549 185.824,176.736 144.723,247.925 "/>
<polygon fill="none" stroke="#000000" stroke-width="8" stroke-miterlimit="10" points="116.957,247.925 75.856,176.736 
	116.957,105.549 199.158,105.549 240.259,176.736 199.158,247.925 "/>
<polygon fill="none" stroke="#000000" stroke-width="8" stroke-miterlimit="10" points="172.393,247.925 131.291,176.736 
	172.393,105.549 254.594,105.549 295.693,176.736 254.594,247.925 "/>
<path fill="none" stroke="#000000" stroke-width="8" stroke-miterlimit="10" d="M154.824,178.736c0,0-18.25,24.938-37.75,20.188
	c-15.344-3.738-19.25-16.617-19.25-22.188s3.906-18.45,19.25-22.188c19.5-4.75,37.75,20.188,37.75,20.188"/>
<path fill="none" stroke="#000000" stroke-width="8" stroke-miterlimit="10" d="M161.291,178.736c0,0,18.25,24.938,37.75,20.188
	c15.344-3.738,19.25-16.617,19.25-22.188s-3.906-18.45-19.25-22.188c-19.5-4.75-37.75,20.188-37.75,20.188"/>
<path d="M72.531,68.531c0,0.96-0.137,1.672-0.408,2.136s-0.584,0.888-0.936,1.272c0.352,0.353,0.664,0.76,0.936,1.224
	c0.271,0.464,0.408,1.193,0.408,2.184v10.752c0,1.152-0.145,2.048-0.432,2.688c-0.289,0.641-0.672,1.121-1.152,1.44
	c-0.48,0.32-1.008,0.521-1.584,0.6c-0.576,0.081-1.152,0.12-1.729,0.12h-4.416V52.883h4.416c0.576,0,1.152,0.041,1.729,0.12
	c0.576,0.08,1.104,0.28,1.584,0.6c0.48,0.32,0.863,0.8,1.152,1.44c0.287,0.64,0.432,1.536,0.432,2.688V68.531z M69.651,58.211
	c0-0.607-0.04-1.08-0.12-1.416s-0.2-0.576-0.359-0.72c-0.161-0.144-0.369-0.231-0.625-0.264c-0.256-0.031-0.561-0.048-0.912-0.048
	H66.1v14.736h0.959c0.512,0,0.937-0.024,1.272-0.072c0.337-0.048,0.601-0.151,0.792-0.312c0.192-0.16,0.328-0.408,0.408-0.744
	s0.12-0.775,0.12-1.32V58.211z M69.651,75.827c0-1.087-0.185-1.768-0.552-2.04c-0.369-0.271-1.049-0.408-2.041-0.408H66.1v14.688
	h1.535c0.352,0,0.656-0.016,0.912-0.048c0.256-0.031,0.464-0.12,0.625-0.264c0.159-0.144,0.279-0.384,0.359-0.72
	s0.12-0.808,0.12-1.416V75.827z"/>
<path d="M78.723,55.763v14.736h4.992v2.88h-4.992v14.688h6.432v2.88h-9.312V52.883h9.312v2.88H78.723z"/>
<path d="M90.818,55.763v14.736h4.992v2.88h-4.992v14.688h6.432v2.88h-9.312V52.883h9.312v2.88H90.818z"/>
<path d="M110.113,52.883v38.064h-2.879V73.379h-3.553v17.568h-2.88V52.883h2.88v17.616h3.553V52.883H110.113z"/>
<path d="M118.418,90.947c-1.729-0.064-2.928-0.52-3.601-1.368c-0.672-0.847-1.008-2.008-1.008-3.48V57.731
	c0.063-1.6,0.439-2.808,1.128-3.624c0.688-0.816,1.848-1.224,3.48-1.224c1.663,0.064,2.855,0.584,3.576,1.56
	c0.719,0.977,1.08,2.232,1.08,3.768v27.888c-0.064,1.601-0.449,2.808-1.152,3.624C121.217,90.539,120.05,90.947,118.418,90.947z
	 M118.418,55.763c-0.416,0-0.736,0.096-0.961,0.288c-0.224,0.192-0.392,0.424-0.504,0.696c-0.111,0.272-0.184,0.584-0.215,0.936
	c-0.033,0.353-0.049,0.688-0.049,1.008v26.448c0.031,0.768,0.136,1.448,0.312,2.04c0.176,0.593,0.647,0.888,1.416,0.888
	c0.415,0,0.744-0.088,0.983-0.264c0.24-0.175,0.415-0.408,0.528-0.696c0.111-0.288,0.184-0.6,0.216-0.936s0.048-0.68,0.048-1.032
	V58.691c-0.032-0.8-0.144-1.488-0.336-2.064C119.666,56.051,119.186,55.763,118.418,55.763z"/>
<path d="M130.754,90.947c-1.729-0.064-2.928-0.52-3.601-1.368c-0.672-0.847-1.008-2.008-1.008-3.48V52.883h2.88v32.256
	c0.031,0.768,0.136,1.448,0.312,2.04c0.176,0.593,0.647,0.888,1.416,0.888c0.415,0,0.744-0.088,0.983-0.264
	c0.24-0.175,0.415-0.408,0.528-0.696c0.111-0.288,0.184-0.6,0.216-0.936s0.048-0.68,0.048-1.032V52.883h2.881v33.216
	c-0.064,1.601-0.449,2.808-1.152,3.624C133.553,90.539,132.386,90.947,130.754,90.947z"/>
<path d="M143.186,90.947c-1.761-0.064-2.977-0.496-3.648-1.296c-0.672-0.8-1.008-1.984-1.008-3.552v-3.216h2.88v2.736
	c0,0.833,0.104,1.448,0.312,1.848c0.209,0.4,0.697,0.6,1.465,0.6c0.415,0,0.735-0.104,0.96-0.312
	c0.224-0.208,0.392-0.472,0.504-0.792c0.112-0.32,0.184-0.664,0.216-1.032c0.031-0.367,0.048-0.711,0.048-1.032c0-0.8,0-1.68,0-2.64
	s-0.08-1.96-0.239-3c-0.161-1.04-0.441-2.104-0.84-3.192c-0.401-1.087-0.984-2.144-1.753-3.168c-0.832-1.12-1.487-2.232-1.968-3.336
	s-0.84-2.24-1.08-3.408c-0.24-1.168-0.384-2.383-0.432-3.648c-0.049-1.264-0.072-2.616-0.072-4.056
	c0.031-0.799,0.136-1.536,0.312-2.208c0.175-0.672,0.447-1.255,0.815-1.752c0.368-0.496,0.84-0.888,1.416-1.176
	c0.576-0.288,1.264-0.432,2.063-0.432c1.664,0,2.856,0.36,3.576,1.08c0.721,0.72,1.08,1.816,1.08,3.288v3.696h-2.88v-2.736
	c0-0.8-0.112-1.408-0.336-1.824c-0.224-0.416-0.704-0.624-1.44-0.624c-0.416,0-0.736,0.104-0.959,0.312
	c-0.225,0.208-0.393,0.473-0.504,0.792c-0.113,0.32-0.186,0.665-0.217,1.032c-0.032,0.368-0.048,0.712-0.048,1.032
	c0,0.992,0.016,2,0.048,3.024c0.031,1.025,0.128,2.04,0.288,3.048c0.16,1.008,0.433,2.008,0.816,3
	c0.384,0.992,0.943,1.968,1.68,2.928c0.864,1.152,1.536,2.328,2.017,3.528c0.479,1.2,0.831,2.417,1.056,3.648
	c0.224,1.232,0.36,2.456,0.407,3.672c0.049,1.216,0.072,2.417,0.072,3.6c-0.064,1.601-0.448,2.928-1.152,3.984
	C145.938,90.419,144.785,90.947,143.186,90.947z"/>
<path d="M153.312,55.763v14.736h4.992v2.88h-4.992v14.688h6.432v2.88h-9.312V52.883h9.312v2.88H153.312z"/>
<path d="M171.888,90.947V52.883h2.88v35.184h5.952v2.88H171.888z"/>
<path d="M183.936,90.947V52.883h2.88v38.064H183.936z"/>
<path d="M199.919,68.531c0,0.96-0.137,1.672-0.408,2.136c-0.272,0.464-0.584,0.888-0.937,1.272c0.353,0.353,0.664,0.76,0.937,1.224
	c0.271,0.464,0.408,1.193,0.408,2.184v10.752c0,1.152-0.144,2.048-0.433,2.688c-0.287,0.641-0.672,1.121-1.151,1.44
	c-0.479,0.32-1.008,0.521-1.584,0.6c-0.576,0.081-1.151,0.12-1.728,0.12h-4.416V52.883h4.416c0.576,0,1.151,0.041,1.728,0.12
	c0.576,0.08,1.104,0.28,1.584,0.6c0.479,0.32,0.864,0.8,1.151,1.44c0.289,0.64,0.433,1.536,0.433,2.688V68.531z M197.039,58.211
	c0-0.607-0.041-1.08-0.12-1.416c-0.08-0.336-0.2-0.576-0.36-0.72s-0.367-0.231-0.623-0.264c-0.258-0.031-0.561-0.048-0.912-0.048
	h-1.537v14.736h0.961c0.512,0,0.936-0.024,1.271-0.072s0.6-0.151,0.792-0.312c0.192-0.16,0.328-0.408,0.408-0.744
	c0.079-0.336,0.12-0.775,0.12-1.32V58.211z M197.039,75.827c0-1.087-0.185-1.768-0.553-2.04c-0.367-0.271-1.048-0.408-2.039-0.408
	h-0.961v14.688h1.537c0.352,0,0.654-0.016,0.912-0.048c0.256-0.031,0.463-0.12,0.623-0.264s0.28-0.384,0.36-0.72
	c0.079-0.336,0.12-0.808,0.12-1.416V75.827z"/>
<path d="M212.494,68.051c0,0.416-0.023,0.872-0.071,1.368s-0.134,0.968-0.26,1.416c-0.126,0.448-0.322,0.84-0.589,1.176
	c-0.268,0.336-0.606,0.552-1.016,0.648c0.409,0,0.748,0.168,1.016,0.504s0.473,0.744,0.613,1.224c0.142,0.48,0.236,1,0.283,1.56
	c0.047,0.56,0.071,1.08,0.071,1.56v8.016c0,1.056,0.024,1.92,0.071,2.592c0.049,0.672,0.112,1.2,0.193,1.584
	c0.078,0.384,0.168,0.665,0.264,0.84c0.096,0.176,0.191,0.312,0.287,0.408h-2.844c-0.095-0.064-0.182-0.151-0.261-0.264
	c-0.079-0.112-0.157-0.319-0.235-0.624c-0.078-0.304-0.143-0.744-0.189-1.32s-0.07-1.344-0.07-2.304v-9.504
	c0-1.087-0.119-1.864-0.359-2.328c-0.24-0.463-0.488-0.775-0.744-0.936c-0.225-0.16-0.465-0.248-0.721-0.264
	c-0.256-0.016-0.464-0.024-0.623-0.024h-1.201v17.568h-2.879V52.883h4.727c0.859,0,1.576,0.096,2.148,0.288
	c0.574,0.192,1.035,0.488,1.386,0.888c0.35,0.401,0.597,0.92,0.739,1.56c0.144,0.641,0.231,1.392,0.264,2.256V68.051z
	 M207.502,70.499c0.832,0,1.393-0.16,1.68-0.48c0.289-0.319,0.448-0.976,0.48-1.968v-9.84c0-0.736-0.104-1.32-0.312-1.752
	c-0.208-0.432-0.775-0.664-1.703-0.696h-1.537v14.736H207.502z"/>
<path d="M217.678,90.947h-2.879l3.6-38.064h4.656l3.6,38.064h-2.88l-1.248-13.2h-3.601L217.678,90.947z M220.703,58.259
	l-0.385,4.512l-1.104,12.096h3.023l-1.152-12.048L220.703,58.259z"/>
<path d="M238.414,68.051c0,0.416-0.023,0.872-0.07,1.368c-0.048,0.496-0.135,0.968-0.26,1.416c-0.127,0.448-0.322,0.84-0.59,1.176
	s-0.605,0.552-1.015,0.648c0.409,0,0.747,0.168,1.015,0.504s0.473,0.744,0.614,1.224s0.235,1,0.282,1.56
	c0.048,0.56,0.072,1.08,0.072,1.56v8.016c0,1.056,0.023,1.92,0.071,2.592s0.112,1.2,0.192,1.584c0.079,0.384,0.168,0.665,0.264,0.84
	c0.096,0.176,0.192,0.312,0.288,0.408h-2.845c-0.094-0.064-0.182-0.151-0.26-0.264c-0.079-0.112-0.158-0.319-0.236-0.624
	c-0.078-0.304-0.142-0.744-0.188-1.32c-0.048-0.576-0.071-1.344-0.071-2.304v-9.504c0-1.087-0.119-1.864-0.359-2.328
	c-0.24-0.463-0.488-0.775-0.744-0.936c-0.225-0.16-0.464-0.248-0.72-0.264c-0.257-0.016-0.464-0.024-0.624-0.024h-1.2v17.568h-2.88
	V52.883h4.727c0.86,0,1.576,0.096,2.149,0.288s1.035,0.488,1.386,0.888c0.35,0.401,0.596,0.92,0.739,1.56
	c0.144,0.641,0.231,1.392,0.263,2.256V68.051z M233.422,70.499c0.832,0,1.393-0.16,1.681-0.48c0.288-0.319,0.448-0.976,0.479-1.968
	v-9.84c0-0.736-0.104-1.32-0.312-1.752c-0.208-0.432-0.776-0.664-1.704-0.696h-1.536v14.736H233.422z"/>
<path d="M252.047,52.883l-4.513,19.2v18.864h-2.88V72.131l-4.561-19.248h2.977l3.023,13.344l2.977-13.344H252.047z"/>
<path d="M89.004,299.925H85.26l-4.608-22.752l-0.864-5.185v27.937h-2.88v-38.063h3.647l4.608,23.279l0.96,6.672v-29.951h2.881
	V299.925z"/>
<path d="M103.644,261.861l-4.513,19.199v18.864h-2.879v-18.815l-4.561-19.248h2.977l3.023,13.344l2.977-13.344H103.644z"/>
<path d="M110.074,299.925c-1.728-0.063-2.928-0.52-3.6-1.368c-0.672-0.848-1.008-2.008-1.008-3.48v-28.367
	c0.064-1.6,0.439-2.809,1.128-3.624s1.849-1.224,3.479-1.224c1.664,0.064,2.856,0.504,3.576,1.319
	c0.721,0.815,1.08,1.992,1.08,3.528v3.216h-2.88v-2.735c-0.032-0.801-0.144-1.408-0.336-1.824s-0.672-0.625-1.44-0.625
	c-0.416,0-0.736,0.064-0.959,0.192c-0.225,0.128-0.393,0.305-0.504,0.528c-0.113,0.225-0.186,0.488-0.217,0.792
	c-0.032,0.304-0.048,0.616-0.048,0.937v27.407c0.032,0.769,0.136,1.368,0.312,1.8s0.648,0.648,1.416,0.648
	c0.832,0,1.336-0.24,1.513-0.721c0.175-0.479,0.264-1.055,0.264-1.728v-2.735h2.88v3.215c-0.064,1.602-0.448,2.809-1.152,3.625
	C112.875,299.517,111.707,299.925,110.074,299.925z"/>
<path d="M138.154,282.357h-9.6v-2.881h9.6V282.357z"/>
<path d="M152.697,264.74v14.736h4.992v2.881h-4.992v14.688h6.432v2.88h-9.312v-38.063h9.312v2.879H152.697z"/>
<path d="M165.801,299.925c-1.761-0.063-2.977-0.495-3.648-1.296c-0.672-0.8-1.008-1.984-1.008-3.553v-3.215h2.88v2.735
	c0,0.833,0.104,1.448,0.312,1.849c0.209,0.4,0.697,0.6,1.465,0.6c0.415,0,0.735-0.104,0.96-0.312
	c0.224-0.207,0.392-0.471,0.504-0.791s0.184-0.664,0.216-1.033c0.031-0.367,0.048-0.711,0.048-1.031c0-0.8,0-1.68,0-2.641
	c0-0.959-0.08-1.959-0.239-3c-0.161-1.039-0.441-2.104-0.84-3.191c-0.401-1.088-0.984-2.144-1.753-3.168
	c-0.832-1.12-1.487-2.232-1.968-3.336s-0.84-2.24-1.08-3.408s-0.384-2.383-0.432-3.648c-0.049-1.264-0.072-2.615-0.072-4.056
	c0.031-0.8,0.136-1.536,0.312-2.208c0.175-0.672,0.447-1.256,0.815-1.752s0.84-0.889,1.416-1.176
	c0.576-0.288,1.264-0.432,2.063-0.432c1.664,0,2.856,0.359,3.576,1.08c0.721,0.719,1.08,1.816,1.08,3.287v3.696h-2.88v-2.735
	c0-0.801-0.112-1.408-0.336-1.824s-0.704-0.625-1.44-0.625c-0.416,0-0.736,0.105-0.959,0.312c-0.225,0.209-0.393,0.473-0.504,0.792
	c-0.113,0.32-0.186,0.665-0.217,1.032c-0.032,0.368-0.048,0.713-0.048,1.031c0,0.992,0.016,2.001,0.048,3.024
	c0.031,1.024,0.128,2.04,0.288,3.048s0.433,2.009,0.816,3c0.384,0.992,0.943,1.969,1.68,2.928c0.864,1.152,1.536,2.328,2.017,3.529
	c0.479,1.199,0.831,2.416,1.056,3.647c0.224,1.231,0.36,2.456,0.407,3.672c0.049,1.216,0.072,2.417,0.072,3.601
	c-0.064,1.6-0.448,2.928-1.152,3.983C168.553,299.396,167.4,299.925,165.801,299.925z"/>
<path d="M181.785,264.74h-3.217v35.185h-2.88V264.74h-3.216v-2.879h3.216h2.88h3.217V264.74z"/>
<path d="M180.488,298.438c0-0.48,0.168-0.896,0.504-1.248c0.336-0.353,0.76-0.529,1.272-0.529c0.512,0,0.937,0.177,1.272,0.529
	c0.336,0.352,0.504,0.768,0.504,1.248c0,0.512-0.168,0.936-0.504,1.271s-0.761,0.504-1.272,0.504c-0.513,0-0.937-0.168-1.272-0.504
	S180.488,298.949,180.488,298.438z"/>
<path d="M203.815,299.925h-9.265v-2.929c0-2.431,0.225-4.863,0.672-7.295c0.641-3.104,1.601-5.792,2.881-8.064
	c0.64-1.152,1.144-2.383,1.512-3.695c0.367-1.312,0.648-2.617,0.84-3.912c0.192-1.297,0.32-2.527,0.385-3.696
	c0.062-1.168,0.096-2.2,0.096-3.097c-0.033-0.768-0.137-1.375-0.312-1.824c-0.176-0.447-0.648-0.672-1.416-0.672
	c-0.832,0-1.336,0.249-1.512,0.744c-0.176,0.497-0.264,1.08-0.264,1.752v2.688h-2.881v-3.216c0.064-1.664,0.424-2.888,1.08-3.672
	s1.849-1.176,3.576-1.176c1.695,0.064,2.888,0.52,3.576,1.367c0.688,0.849,1.032,2.009,1.032,3.48c0,1.408-0.04,2.855-0.12,4.344
	s-0.248,2.952-0.504,4.393c-0.576,2.943-1.439,5.472-2.592,7.584c-0.705,1.248-1.265,2.527-1.68,3.84
	c-0.417,1.312-0.737,2.592-0.961,3.84c-0.225,1.248-0.368,2.416-0.432,3.504c-0.064,1.088-0.096,2.016-0.096,2.783v0.049h6.384
	V299.925z"/>
<path d="M211.639,299.925c-1.728-0.063-2.928-0.52-3.6-1.368c-0.672-0.848-1.008-2.008-1.008-3.48v-28.367
	c0.064-1.6,0.439-2.809,1.128-3.624s1.849-1.224,3.479-1.224c1.664,0.064,2.856,0.504,3.576,1.319
	c0.721,0.815,1.08,1.992,1.08,3.528v28.367c-0.064,1.602-0.455,2.809-1.176,3.625C214.399,299.517,213.238,299.925,211.639,299.925z
	 M211.639,264.74c-0.832,0.033-1.328,0.305-1.487,0.816c-0.161,0.512-0.24,1.104-0.24,1.776v27.071
	c0.032,0.769,0.136,1.4,0.312,1.896s0.648,0.744,1.416,0.744c0.416,0,0.736-0.08,0.961-0.24c0.223-0.16,0.399-0.359,0.527-0.6
	s0.208-0.52,0.24-0.84c0.031-0.32,0.048-0.641,0.048-0.961v-27.071c-0.032-0.769-0.144-1.392-0.336-1.872
	S212.407,264.74,211.639,264.74z"/>
<path d="M222.727,299.925v-32.735l-1.296,1.728l-2.304-1.728l3.984-5.328h2.495v38.063H222.727z"/>
<path d="M234.293,299.925c-1.76-0.063-2.975-0.495-3.647-1.296c-0.672-0.8-1.008-1.984-1.008-3.553v-1.92h2.88v1.345
	c0.031,0.833,0.145,1.464,0.336,1.896c0.192,0.432,0.672,0.648,1.439,0.648c0.416,0,0.736-0.072,0.961-0.217
	c0.223-0.144,0.391-0.336,0.504-0.575c0.111-0.24,0.184-0.512,0.216-0.815c0.032-0.305,0.048-0.616,0.048-0.937v-13.392
	c-0.032-0.769-0.137-1.369-0.312-1.801s-0.647-0.648-1.416-0.648c-0.352,0-0.64,0.081-0.863,0.24
	c-0.225,0.161-0.408,0.36-0.552,0.601c-0.144,0.239-0.24,0.479-0.288,0.72c-0.049,0.24-0.072,0.44-0.072,0.6v0.769h-2.88v-0.769
	v-18.959h9.265v2.879h-6.385v12.721c0.064-0.352,0.295-0.721,0.696-1.104c0.399-0.385,1.063-0.576,1.991-0.576
	c1.121,0,2.017,0.4,2.688,1.199c0.673,0.801,1.009,2.016,1.009,3.648v14.447c-0.064,1.602-0.441,2.809-1.129,3.625
	C237.085,299.517,235.926,299.925,234.293,299.925z"/>
<rect x="315.5" fill="#FFDC0B" width="5" height="350"/>
<rect x="349.5" y="51" fill="none" width="176" height="251"/>
<text transform="matrix(1 0 0 1 349.5 69.8501)"><tspan x="0" y="0" font-family="'CrimsonText-Roman'" font-size="24">A free lending </tspan><tspan x="0" y="28.8" font-family="'CrimsonText-Roman'" font-size="24">library based in </tspan><tspan x="0" y="57.6" font-family="'CrimsonText-Roman'" font-size="24">New York City</tspan><tspan x="0" y="100.8" font-family="'CrimsonText-Roman'" font-size="18">Curated and built </tspan><tspan x="0" y="122.4" font-family="'CrimsonText-Roman'" font-size="18">with my partner,</tspan><tspan x="0" y="144" font-family="'CrimsonText-Roman'" font-size="18">Clayton Albachten.</tspan><tspan x="0" y="187.2" font-family="'CrimsonText-Italic'" font-size="18">Our personal book </tspan><tspan x="0" y="208.8" font-family="'CrimsonText-Italic'" font-size="18">collection &amp; online </tspan><tspan x="0" y="230.4" font-family="'CrimsonText-Italic'" font-size="18">library platform. </tspan></text>
<rect x="1.5" y="12.8" fill="none" stroke="#BBBBBB" stroke-width="3" stroke-miterlimit="10" width="544" height="326.4"/>
</svg>
